<?xml version="1.0" encoding="UTF-8" standalone="no"?>
<!-- Generator: Adobe Illustrator 27.5.0, SVG Export Plug-In . SVG Version: 6.00 Build 0)  -->

<svg
   version="1.1"
   x="0px"
   y="0px"
   viewBox="0 0 471.38589 33.999817"
   xml:space="preserve"
   id="svg52"
   width="471.38589"
   height="33.999817"
   xmlns="http://www.w3.org/2000/svg"
   xmlns:svg="http://www.w3.org/2000/svg"><defs
   id="defs52" />

<path
   fill="#1f244a"
   fill-opacity="1"
   d="m 471.346,8.306816 c -0.971,-8.91300005 -12.844,-10.096 -18.783,-6.129 -5.041,3.367 -9.84986,13.755426 -23.56,21.978184 -2.76486,1.658242 -6.426,2.843816 -8.501,2.843816 h -0.012 c -12.225,0 -15.37513,-17.6024278 -7.562,-19.947 8.21587,-2.4654278 8.09,8.3 8.09,8.3 1.815,-0.826 3.951,-3.888 3.605,-7.07 -0.971,-8.91300005 -12.844,-10.084 -18.783,-6.117 -5.041,3.367 -9.849,13.767 -23.56,21.99 -2.765,1.658 -6.425,2.844 -8.501,2.844 h -0.012 c -12.225,0 -15.375,-17.602 -7.562,-19.947 8.216,-2.465 8.09,8.3 8.09,8.3 1.815,-0.826 3.951,-3.888 3.605,-7.07 -0.971,-8.91300005 -12.844,-10.084 -18.783,-6.117 -5.041,3.367 -9.85,13.767 -23.56,21.99 -2.765,1.658 -6.426,2.844 -8.501,2.844 h -0.012 c -12.225,0 -15.375,-17.602 -7.562,-19.947 8.216,-2.465 8.09,8.3 8.09,8.3 1.815,-0.826 3.951,-3.888 3.605,-7.07 -0.97,-8.91300005 -12.844,-10.084 -18.783,-6.117 -5.041,3.367 -9.849,13.767 -23.559,21.99 -2.765,1.658 -6.426,2.844 -8.501,2.844 h -0.012 c -12.225,0 -15.375,-17.602 -7.562,-19.947 8.216,-2.465 8.09,8.3 8.09,8.3 1.815,-0.826 3.951,-3.888 3.605,-7.07 -0.971,-8.91300005 -12.844,-10.084 -18.783,-6.117 -5.041,3.367 -9.85,13.767 -23.56,21.99 -2.765,1.658 -6.426,2.844 -8.501,2.844 h -0.012 c -12.225,0 -15.375,-17.602 -7.562,-19.947 8.216,-2.465 8.09,8.3 8.09,8.3 1.815,-0.826 3.951,-3.888 3.605,-7.07 -0.971,-8.91300005 -12.844,-10.084 -18.783,-6.117 -5.041,3.367 -9.849,13.767 -23.559,21.99 -2.765,1.658 -6.426,2.844 -8.501,2.844 h -0.012 c -12.225,0 -15.375,-17.602 -7.562,-19.947 8.216,-2.465 8.09,8.3 8.09,8.3 1.815,-0.826 3.951,-3.888 3.605,-7.07 -0.97,-8.91300005 -12.844,-10.084 -18.783,-6.117 -5.041,3.367 -9.849,13.767 -23.559,21.99 -2.765,1.658 -6.426,2.844 -8.501,2.844 h -0.012 c -12.225,0 -15.375,-17.602 -7.562,-19.947 8.216,-2.465 8.09,8.3 8.09,8.3 1.815,-0.826 3.951,-3.888 3.605,-7.07 -0.971,-8.91300005 -12.844,-10.084 -18.783,-6.117 -5.041,3.367 -9.849,13.767 -23.559,21.99 -2.765002,1.658 -6.425002,2.844 -8.501002,2.844 h -0.012 c -12.224998,0 -15.374998,-17.602 -7.562,-19.947 8.216,-2.465 8.09,8.3 8.09,8.3 1.815,-0.826 3.951,-3.888 3.605,-7.07 -0.97,-8.91300005 -12.844,-10.084 -18.782998,-6.117 -5.041,3.367 -9.849,13.767 -23.56,21.99 -2.765,1.658 -6.425,2.844 -8.501,2.844 H 46.71 c -12.225,0 -15.375,-17.602 -7.562,-19.947 8.216,-2.465 8.09,8.3 8.09,8.3 1.815,-0.826 3.951,-3.888 3.605,-7.07 -0.97,-8.91300005 -12.844,-10.084 -18.783,-6.117 -5.041,3.367 -9.849,13.767 -23.559,21.99 -2.765,1.658 -6.425,2.844 -8.501,2.844 v 0 7.000001 l 46.705,-10e-7 h 46.722998 46.723002 46.723 46.723 46.723 46.723 46.723 46.723 47.353 l 3.54389,10e-7 v -6.942145 l -4.2565,0.902902 c -13,0 -14.97639,-18.466758 -7.16339,-20.811758 8.216,-2.466 7.932,8.252 7.932,8.252 1.815,-0.827 3.795,-3.912 3.448,-7.094 z"
   id="path5" />

</svg>
